<svg width="32" height="32" viewBox="0 0 32 32" fill="none" xmlns="http://www.w3.org/2000/svg">
  <rect width="32" height="32" rx="8" fill="#1E5631"/>
  <path d="M16 6C12.6863 6 10 8.68629 10 12C10 15.3137 12.6863 18 16 18C19.3137 18 22 15.3137 22 12C22 8.68629 19.3137 6 16 6ZM16 8C18.2091 8 20 9.79086 20 12C20 14.2091 18.2091 16 16 16C13.7909 16 12 14.2091 12 12C12 9.79086 13.7909 8 16 8Z" fill="#7ED957"/>
  <path d="M10 20C7.79086 20 6 21.7909 6 24C6 26.2091 7.79086 28 10 28C12.2091 28 14 26.2091 14 24C14 21.7909 12.2091 20 10 20ZM10 22C11.1046 22 12 22.8954 12 24C12 25.1046 11.1046 26 10 26C8.89543 26 8 25.1046 8 24C8 22.8954 8.89543 22 10 22Z" fill="#7ED957"/>
  <path d="M22 20C19.7909 20 18 21.7909 18 24C18 26.2091 19.7909 28 22 28C24.2091 28 26 26.2091 26 24C26 21.7909 24.2091 20 22 20ZM22 22C23.1046 22 24 22.8954 24 24C24 25.1046 23.1046 26 22 26C20.8954 26 20 25.1046 20 24C20 22.8954 20.8954 22 22 22Z" fill="#7ED957"/>
</svg>